<?xml version="1.0" encoding="utf-8"?>
<!-- Generator: Adobe Adobe Illustrator 24.2.0, SVG Export Plug-In . SVG Version: 6.00 Build 0)  -->
<svg version="1.1" id="Ebene_1" xmlns="http://www.w3.org/2000/svg" xmlns:xlink="http://www.w3.org/1999/xlink" x="0px" y="0px"
	 width="572px" height="296px" viewBox="0 0 572 296" style="enable-background:new 0 0 572 296;" xml:space="preserve">
<style type="text/css">
	.st0{fill:#0F1E42;}
	.st1{fill:#4080FF;}
	.st2{fill:#0062FF;}
	.st3{fill:#FA6EA6;}
	.st4{fill:#21AEFF;}
	.st5{fill:url(#SVGID_1_);}
	.st6{fill:#0011FF;}
	.st7{fill:#000DBD;}
	.st8{fill:#2A7AFA;}
	.st9{fill:#8FBAFF;}
	.st10{fill:#619EFF;}
	.st11{fill:#0029CC;}
	.st12{fill:#006AFF;}
	.st13{fill:#0044FF;}
	.st14{fill:#0027C2;}
	.st15{fill:#1783FF;}
	.st16{fill:#85B4FF;}
	.st17{fill:#008DDE;}
	.st18{fill:#99DAFF;}
	.st19{fill:#57C1FF;}
	.st20{fill:#005A8F;}
	.st21{fill:#4551FF;}
	.st22{fill:#858DFF;}
	.st23{fill:#A1A7FF;}
	.st24{fill:#FFFFFF;stroke:#000000;stroke-width:34;stroke-miterlimit:10;}
	.st25{fill:#030302;stroke:#000000;stroke-width:34;stroke-miterlimit:10;}
	.st26{fill:#2A8AF7;stroke:#000000;stroke-width:34;stroke-miterlimit:10;}
	.st27{fill:#1783FF;stroke:#000000;stroke-width:34;stroke-miterlimit:10;}
	.st28{fill:#FFC880;stroke:#000000;stroke-miterlimit:10;}
	.st29{fill:#2062E6;}
	.st30{fill:#171717;}
	.st31{fill:#FFFFFF;}
	.st32{fill:#FFD747;}
	.st33{fill:#0D0D0D;}
	.st34{fill:#FFD747;stroke:#000000;stroke-width:2;stroke-miterlimit:10;}
	.st35{fill:#FFF3D8;}
	.st36{fill:#16151A;}
	.st37{fill:#BEC1D0;}
	.st38{fill:#0E0D13;}
	.st39{fill:#B3B6C3;}
	.st40{fill:#ABB0BD;}
	.st41{fill:#121016;}
	.st42{fill:#AFB3BF;}
	.st43{fill:#141318;}
	.st44{fill:#A1AAB5;}
	.st45{fill:#9AA0AE;}
	.st46{fill:#2D292A;}
	.st47{fill:#2B2B30;}
	.st48{fill:#38383A;}
	.st49{fill:#9A9EAA;}
	.st50{fill:#1F1E22;}
	.st51{fill:#9EA4B1;}
	.st52{fill:#878F9B;}
	.st53{fill:#898B8E;}
	.st54{fill:#A7ABB8;}
	.st55{fill:#848C98;}
	.st56{fill:#8A8887;}
	.st57{fill:#9B9E97;}
	.st58{fill:#212024;}
	.st59{fill:#1A181D;}
	.st60{fill:#CECDD4;}
	.st61{fill:#C7C7D1;}
	.st62{fill:#62615C;}
	.st63{fill:#D0D3E1;}
	.st64{fill:#48474C;}
	.st65{fill:#8C93A0;}
	.st66{fill:#CACCDA;}
	.st67{fill:#A0ABBC;}
	.st68{fill:#413732;}
	.st69{fill:#BCC0CD;}
	.st70{fill:#D1D1DB;}
	.st71{fill:#C1C1CA;}
	.st72{fill:#535755;}
	.st73{fill:#8B95A2;}
	.st74{fill:#C0C1BC;}
	.st75{fill:#ACAFAD;}
	.st76{fill:#BEC0CA;}
	.st77{fill:#C2C2CF;}
	.st78{fill:#4C4D54;}
	.st79{fill:#A5A9B1;}
	.st80{fill:#7D7F83;}
	.st81{fill:#9499A5;}
	.st82{fill:#17171C;}
	.st83{fill:#262529;}
	.st84{fill:#BEC0CD;}
	.st85{fill:#C4C5D1;}
	.st86{fill:#0B0A10;}
	.st87{fill:#B8BBC8;}
	.st88{fill:#ACB1BE;}
	.st89{fill:#828A97;}
	.st90{fill:#ACB1BD;}
	.st91{fill:#A3A7B3;}
	.st92{fill:#7E8592;}
	.st93{fill:#9BA2AF;}
	.st94{fill:#78818F;}
	.st95{fill:#1D1B1F;}
	.st96{fill:#252022;}
	.st97{fill:#B3B8C3;}
	.st98{fill:#1F2126;}
	.st99{fill:#B3B7C2;}
	.st100{fill:#C3C8DA;}
	.st101{fill:#C8CDE0;}
	.st102{fill:#A3A7B0;}
	.st103{fill:#ACAFB2;}
	.st104{fill:#484B54;}
	.st105{fill:#535459;}
	.st106{fill:#3F424B;}
	.st107{fill:#969B9F;}
	.st108{fill:#85909F;}
	.st109{fill:#7E8797;}
	.st110{fill:#8E9094;}
	.st111{fill:#8E98AB;}
	.st112{fill:#707884;}
	.st113{fill:#818B9E;}
	.st114{fill:#96A1B3;}
	.st115{fill:#5A6067;}
	.st116{fill:#758195;}
	.st117{fill:#989992;}
	.st118{fill:#6A7075;}
	.st119{fill:#A5A7A8;}
	.st120{fill:#A4A4A4;}
	.st121{fill:#B3B7B8;}
	.st122{fill:#8791A3;}
	.st123{fill:#8E98A6;}
	.st124{fill:#8C796B;}
	.st125{fill:#B4B6B0;}
	.st126{fill:#C2C1C8;}
	.st127{fill:#C6C5CB;}
	.st128{fill:#393230;}
	.st129{fill:#292525;}
	.st130{fill:#566672;}
	.st131{fill:#343640;}
	.st132{fill:#323033;}
	.st133{fill:#2C2F39;}
	.st134{fill:#A4ABBD;}
	.st135{fill:#3E3E43;}
	.st136{fill:#5F6974;}
	.st137{fill:#52575E;}
	.st138{fill:#68717B;}
	.st139{fill:#6D7781;}
	.st140{fill:#717C89;}
	.st141{fill:#43545E;}
	.st142{fill:#575A5E;}
	.st143{fill:#6C5853;}
	.st144{fill:#ADB0B7;}
	.st145{fill:#ADB2C1;}
	.st146{fill:#AFB9CC;}
	.st147{fill:#B9BCC8;}
	.st148{fill:#B9BDC5;}
	.st149{fill:#B2B3AC;}
	.st150{fill:#45454C;}
	.st151{fill:#A3A495;}
	.st152{fill:#666A6A;}
	.st153{fill:#23262D;}
	.st154{fill:#1A1C20;}
	.st155{fill:#4F606C;}
	.st156{fill:#4B443C;}
	.st157{fill:#272A32;}
	.st158{fill:#9DA7B9;}
	.st159{fill:#3A4C56;}
	.st160{fill:#B2B4B6;}
	.st161{fill:#ABACAA;}
	.st162{fill:#8E9FAD;}
	.st163{fill:#A1A59C;}
	.st164{fill:#BCBDAA;}
	.st165{fill:#5D5649;}
	.st166{fill:#534E42;}
	.st167{fill:#7F6859;}
	.st168{fill:#8A98AA;}
	.st169{fill:#8499A9;}
	.st170{fill:#8293A0;}
</style>
<g>
	<path class="st32" d="M219.9,150.03h121.23l19.21-27.4L279.72,16.49l-80.63,106.15L219.9,150.03z M279.71,59.04l46.59,63.6h-93.18
		L279.71,59.04z"/>
</g>
<g>
	<path class="st32" d="M9.88,206.59h25.7c4.79,0,9.59,0.71,14.38,2.12c4.79,1.41,9.13,3.63,13.01,6.66
		c3.88,3.03,7.02,6.91,9.41,11.63c2.4,4.72,3.6,10.4,3.6,17.03c0,6.42-1.2,11.97-3.6,16.66c-2.4,4.69-5.54,8.57-9.41,11.63
		c-3.88,3.07-8.21,5.36-13.01,6.88c-4.79,1.52-9.59,2.27-14.38,2.27H9.88V206.59z M20.35,272.27h13.11c4.51,0,8.69-0.63,12.53-1.9
		c3.84-1.27,7.16-3.1,9.94-5.5c2.79-2.4,4.95-5.36,6.5-8.88c1.55-3.52,2.33-7.51,2.33-11.95c0-4.65-0.78-8.74-2.33-12.27
		c-1.55-3.52-3.72-6.47-6.5-8.83s-6.1-4.16-9.94-5.39c-3.84-1.23-8.02-1.85-12.53-1.85H20.35V272.27z"/>
	<path class="st32" d="M113.2,249c0-3.74-1.13-6.5-3.38-8.3c-2.26-1.8-5.25-2.7-8.99-2.7c-2.82,0-5.48,0.55-7.98,1.64
		c-2.5,1.09-4.6,2.49-6.29,4.18l-5.29-6.35c2.47-2.33,5.48-4.16,9.04-5.5c3.56-1.34,7.38-2.01,11.47-2.01c3.6,0,6.72,0.51,9.36,1.53
		c2.64,1.02,4.81,2.42,6.5,4.18c1.69,1.76,2.96,3.84,3.81,6.24c0.85,2.4,1.27,4.97,1.27,7.72v21.89c0,1.69,0.05,3.47,0.16,5.34
		c0.11,1.87,0.3,3.4,0.58,4.6h-8.99c-0.56-2.4-0.85-4.79-0.85-7.19h-0.32c-1.83,2.68-4.14,4.76-6.93,6.24
		c-2.79,1.48-6.08,2.22-9.89,2.22c-1.97,0-4.04-0.26-6.19-0.79c-2.15-0.53-4.11-1.39-5.87-2.59c-1.76-1.2-3.22-2.78-4.39-4.76
		c-1.16-1.97-1.74-4.41-1.74-7.3c0-3.81,1.02-6.82,3.07-9.04c2.04-2.22,4.72-3.91,8.04-5.08c3.31-1.16,7.05-1.92,11.21-2.27
		c4.16-0.35,8.35-0.53,12.58-0.53V249z M110.77,257.57c-2.47,0-5.02,0.11-7.67,0.32c-2.64,0.21-5.04,0.63-7.19,1.27
		c-2.15,0.63-3.93,1.59-5.34,2.86c-1.41,1.27-2.12,2.96-2.12,5.08c0,1.48,0.3,2.71,0.9,3.7c0.6,0.99,1.39,1.8,2.38,2.43
		c0.99,0.63,2.08,1.08,3.28,1.32c1.2,0.25,2.43,0.37,3.7,0.37c4.65,0,8.23-1.39,10.73-4.18c2.5-2.78,3.75-6.29,3.75-10.52v-2.64
		H110.77z"/>
	<path class="st32" d="M155.08,281.47h-10.79l-20.41-50.13h11l14.7,39.45h0.21l14.81-39.45h10.58L155.08,281.47z"/>
	<path class="st32" d="M188.71,213.25c0,1.83-0.65,3.35-1.96,4.55c-1.31,1.2-2.87,1.8-4.71,1.8s-3.38-0.62-4.65-1.85
		c-1.27-1.23-1.9-2.73-1.9-4.5c0-1.83,0.63-3.37,1.9-4.6c1.27-1.23,2.82-1.85,4.65-1.85s3.4,0.62,4.71,1.85
		C188.06,209.89,188.71,211.42,188.71,213.25z M187.02,281.47h-9.94v-50.13h9.94V281.47z"/>
	<path class="st32" d="M236.51,273.54c-1.9,3.03-4.5,5.34-7.77,6.93c-3.28,1.59-6.72,2.38-10.31,2.38c-3.88,0-7.37-0.69-10.47-2.06
		c-3.1-1.38-5.75-3.26-7.93-5.66c-2.19-2.4-3.88-5.22-5.08-8.46c-1.2-3.24-1.8-6.7-1.8-10.36c0-3.67,0.6-7.1,1.8-10.31
		c1.2-3.21,2.91-6.01,5.13-8.41c2.22-2.4,4.88-4.26,7.98-5.6c3.1-1.34,6.52-2.01,10.26-2.01c4.09,0,7.65,0.86,10.68,2.59
		c3.03,1.73,5.43,3.83,7.19,6.29h0.21v-37.33h9.94v79.95h-9.62v-7.93H236.51z M203.51,256.3c0,2.33,0.35,4.58,1.06,6.77
		c0.7,2.19,1.76,4.12,3.17,5.82s3.14,3.05,5.18,4.07c2.04,1.02,4.44,1.53,7.19,1.53c2.54,0,4.85-0.49,6.93-1.48
		c2.08-0.99,3.86-2.31,5.34-3.97c1.48-1.66,2.62-3.58,3.44-5.76c0.81-2.18,1.21-4.48,1.21-6.87c0-2.4-0.41-4.69-1.21-6.87
		c-0.81-2.18-1.96-4.12-3.44-5.82c-1.48-1.69-3.26-3.03-5.34-4.02c-2.08-0.99-4.39-1.48-6.93-1.48c-2.75,0-5.15,0.49-7.19,1.48
		c-2.05,0.99-3.77,2.33-5.18,4.02c-1.41,1.69-2.47,3.63-3.17,5.82C203.87,251.71,203.51,253.97,203.51,256.3z"/>
	<path class="st32" d="M302.61,255.98c0,0.57,0,1.13,0,1.69c0,0.56-0.04,1.13-0.11,1.69h-39.76c0.07,2.12,0.54,4.11,1.43,5.98
		c0.88,1.87,2.06,3.49,3.54,4.87c1.48,1.37,3.19,2.45,5.13,3.23c1.94,0.78,4,1.16,6.19,1.16c3.38,0,6.31-0.74,8.78-2.22
		c2.47-1.48,4.4-3.28,5.82-5.39l6.98,5.6c-2.68,3.53-5.84,6.12-9.47,7.77c-3.63,1.66-7.67,2.49-12.11,2.49
		c-3.81,0-7.33-0.63-10.58-1.9c-3.24-1.27-6.03-3.05-8.36-5.34c-2.33-2.29-4.16-5.06-5.5-8.3c-1.34-3.24-2.01-6.84-2.01-10.79
		c0-3.88,0.65-7.46,1.96-10.73s3.12-6.08,5.45-8.41c2.33-2.33,5.08-4.14,8.25-5.45c3.17-1.3,6.59-1.96,10.26-1.96
		c3.66,0,7,0.6,9.99,1.8c3,1.2,5.53,2.93,7.61,5.18c2.08,2.26,3.68,4.99,4.81,8.2C302.04,248.35,302.61,251.96,302.61,255.98z
		 M292.56,251.96c-0.07-1.97-0.41-3.82-1-5.55c-0.6-1.73-1.48-3.23-2.64-4.49c-1.16-1.27-2.61-2.27-4.34-3.01
		c-1.73-0.74-3.75-1.11-6.08-1.11c-2.12,0-4.11,0.37-5.98,1.11c-1.87,0.74-3.49,1.75-4.86,3.01c-1.38,1.27-2.5,2.77-3.38,4.49
		c-0.88,1.73-1.39,3.58-1.53,5.55H292.56z"/>
	<path class="st32" d="M346.29,266.24h0.21l17.55-59.65h11.53l17.45,59.65h0.21l16.5-59.65h11.11l-22,74.88h-10.89l-18.19-60.18
		h-0.21l-18.19,60.18h-10.89l-22-74.88h11.32L346.29,266.24z"/>
	<path class="st32" d="M434.38,213.25c0,1.83-0.65,3.35-1.96,4.55c-1.3,1.2-2.87,1.8-4.71,1.8c-1.83,0-3.38-0.62-4.65-1.85
		c-1.27-1.23-1.9-2.73-1.9-4.5c0-1.83,0.63-3.37,1.9-4.6c1.27-1.23,2.82-1.85,4.65-1.85c1.83,0,3.4,0.62,4.71,1.85
		C433.73,209.89,434.38,211.42,434.38,213.25z M432.69,281.47h-9.94v-50.13h9.94V281.47z"/>
	<path class="st32" d="M488.95,255.98c0,0.57,0,1.13,0,1.69c0,0.56-0.04,1.13-0.11,1.69h-39.77c0.07,2.12,0.55,4.11,1.43,5.98
		c0.88,1.87,2.06,3.49,3.54,4.87c1.48,1.37,3.19,2.45,5.13,3.23c1.94,0.78,4,1.16,6.19,1.16c3.38,0,6.31-0.74,8.78-2.22
		c2.47-1.48,4.41-3.28,5.82-5.39l6.98,5.6c-2.68,3.53-5.83,6.12-9.46,7.77c-3.63,1.66-7.67,2.49-12.11,2.49
		c-3.81,0-7.33-0.63-10.58-1.9c-3.24-1.27-6.03-3.05-8.35-5.34c-2.33-2.29-4.16-5.06-5.5-8.3c-1.34-3.24-2.01-6.84-2.01-10.79
		c0-3.88,0.65-7.46,1.96-10.73c1.3-3.28,3.12-6.08,5.45-8.41c2.33-2.33,5.08-4.14,8.25-5.45c3.17-1.3,6.59-1.96,10.26-1.96
		s7,0.6,9.99,1.8c3,1.2,5.54,2.93,7.62,5.18c2.08,2.26,3.68,4.99,4.81,8.2C488.39,248.35,488.95,251.96,488.95,255.98z
		 M478.9,251.96c-0.07-1.97-0.41-3.82-1-5.55c-0.6-1.73-1.48-3.23-2.64-4.49c-1.16-1.27-2.61-2.27-4.34-3.01
		c-1.73-0.74-3.75-1.11-6.08-1.11c-2.12,0-4.11,0.37-5.97,1.11c-1.87,0.74-3.49,1.75-4.87,3.01c-1.38,1.27-2.5,2.77-3.38,4.49
		c-0.88,1.73-1.39,3.58-1.53,5.55H478.9z"/>
	<path class="st32" d="M522.05,244.03c-1.13-1.83-2.71-3.33-4.76-4.49s-4.34-1.75-6.87-1.75c-1.13,0-2.26,0.12-3.38,0.37
		c-1.13,0.25-2.13,0.63-3.01,1.16c-0.88,0.53-1.59,1.2-2.12,2.01c-0.53,0.81-0.79,1.82-0.79,3.01c0,2.12,0.95,3.69,2.86,4.71
		c1.9,1.02,4.76,1.96,8.57,2.8c2.4,0.57,4.62,1.23,6.66,2.01c2.04,0.78,3.82,1.75,5.34,2.91s2.7,2.56,3.54,4.18
		c0.85,1.62,1.27,3.53,1.27,5.71c0,2.96-0.56,5.46-1.69,7.51c-1.13,2.04-2.63,3.72-4.49,5.02c-1.87,1.3-4,2.24-6.4,2.8
		c-2.4,0.56-4.87,0.85-7.4,0.85c-3.81,0-7.53-0.74-11.16-2.22c-3.63-1.48-6.65-3.74-9.04-6.77l7.09-6.03
		c1.34,1.97,3.19,3.63,5.55,4.97c2.36,1.34,4.95,2.01,7.77,2.01c1.27,0,2.48-0.12,3.65-0.37c1.16-0.25,2.22-0.65,3.17-1.22
		c0.95-0.56,1.71-1.3,2.27-2.22c0.56-0.92,0.85-2.08,0.85-3.49c0-2.33-1.11-4.05-3.33-5.18c-2.22-1.13-5.48-2.18-9.78-3.17
		c-1.69-0.42-3.4-0.93-5.13-1.53c-1.73-0.6-3.3-1.43-4.71-2.49c-1.41-1.06-2.55-2.38-3.44-3.97c-0.88-1.59-1.32-3.54-1.32-5.87
		c0-2.68,0.54-4.99,1.64-6.93c1.09-1.94,2.52-3.53,4.28-4.76c1.76-1.23,3.77-2.15,6.03-2.75c2.26-0.6,4.58-0.9,6.98-0.9
		c3.6,0,7.07,0.71,10.42,2.12c3.35,1.41,5.94,3.46,7.77,6.13L522.05,244.03z"/>
	<path class="st32" d="M558.64,239.48h-13.33v26.12c0,3.03,0.56,5.2,1.69,6.5c1.13,1.31,2.92,1.96,5.39,1.96
		c0.92,0,1.9-0.11,2.96-0.32c1.06-0.21,2.01-0.53,2.86-0.95l0.32,8.14c-1.2,0.42-2.52,0.76-3.97,1c-1.45,0.25-2.94,0.37-4.49,0.37
		c-4.72,0-8.34-1.3-10.84-3.91c-2.5-2.61-3.75-6.52-3.75-11.74v-27.18h-9.62v-8.14h9.62v-14.38h9.83v14.38h13.33V239.48z"/>
</g>
</svg>
