<?xml version="1.0" encoding="utf-8"?>
<!-- Generator: Adobe Adobe Illustrator 24.2.0, SVG Export Plug-In . SVG Version: 6.00 Build 0)  -->
<svg version="1.1" id="Ebene_1" xmlns="http://www.w3.org/2000/svg" xmlns:xlink="http://www.w3.org/1999/xlink" x="0px" y="0px"
	 width="402.22px" height="153.58px" viewBox="0 0 402.22 153.58" style="enable-background:new 0 0 402.22 153.58;"
	 xml:space="preserve">
<style type="text/css">
	.st0{fill:#545454;}
	.st1{fill:#8FFFB8;stroke:#000000;stroke-width:10;stroke-miterlimit:10;}
	.st2{fill:#8FFFB8;stroke:#000000;stroke-width:7;stroke-miterlimit:10;}
	.st3{fill:#1B0F80;}
	.st4{fill:#9C8FA1;}
	.st5{fill:#FFFD6B;}
	.st6{fill:#752694;}
	.st7{fill:#8FFFA3;stroke:#000000;stroke-width:8;stroke-miterlimit:10;}
	.st8{fill:#FFFD6B;stroke:#000000;stroke-width:12;stroke-miterlimit:10;}
	.st9{fill:#FFFD6B;stroke:#000000;stroke-width:7;stroke-miterlimit:10;}
	.st10{fill:none;}
</style>
<rect x="-0.89" y="0" class="st5" width="404" height="153.58"/>
<g>
	<g>
		<path d="M76.78,100.04l0.29-3.72l2.2-0.29c2.29-0.19,3.25-0.67,3.25-1.82V71.29c0-6.02-0.76-6.88-4.11-7.74l-1.91-0.57l0.09-2.96
			l17.1-4.68v38.97c0,0.96,0.57,1.53,3.63,1.72l2.1,0.29l0.29,3.72H76.78z M87.29,48.75c-4.11,0-6.78-3.25-6.78-7.07
			s2.67-7.07,6.78-7.07c4.11,0,6.88,3.25,6.88,7.07S91.39,48.75,87.29,48.75z"/>
		<path d="M128.83,100.04l0.29-3.72l1.81-0.29c2.77-0.19,3.25-0.86,3.25-1.82V75.5c0-9.46-2.96-11.75-8.31-11.75
			c-3.15,0-6.59,1.62-8.4,2.96v27.6c0,0.96,0.57,1.53,3.63,1.72l2.58,0.29l0.29,3.72h-23.49l0.29-3.72l2.29-0.29
			c2.29-0.19,3.25-0.67,3.25-1.82V71.29c0-6.02-0.76-6.88-4.11-7.74l-1.91-0.57l0.1-2.96l17.1-4.68v7.07h0.48
			c5.25-4.2,10.41-7.07,15.66-7.07c2.87,0,5.92,1.15,8.12,3.34c2.48,2.48,3.63,6.11,3.63,10.98v24.54c0,0.86,0.48,1.43,3.92,1.82
			l2.01,0.29l0.29,3.72H128.83z"/>
		<path d="M167.61,101.47c-5.16,0-10.79-0.76-14.71-2.29l-0.48-12.7h6.49l2.29,8.69c1.91,1.05,4.58,2.1,7.26,2.1
			c4.58,0,8.4-2.77,8.4-6.88c0-4.2-5.25-5.83-10.7-7.83c-7.07-2.58-13.37-5.44-13.37-13.94c0-7.35,6.21-13.37,16.9-13.37
			c4.3,0,7.83,0.67,10.31,1.53l4.2-1.05l0.48,14.13h-6.02l-2.58-8.4c-1.72-1.05-4.2-1.91-6.68-1.91c-4.3,0-7.26,2.39-7.26,5.73
			c0,4.39,3.72,5.63,10.22,8.02c6.97,2.58,13.85,5.54,13.85,14.04C186.23,95.07,179.55,101.47,167.61,101.47z"/>
		<path d="M188.43,100.04l0.29-3.72l2.2-0.29c2.29-0.19,3.25-0.67,3.25-1.82V71.29c0-6.02-0.76-6.88-4.11-7.74l-1.91-0.57l0.09-2.96
			l17.1-4.68v38.97c0,0.96,0.57,1.53,3.63,1.72l2.1,0.29l0.29,3.72H188.43z M198.94,48.75c-4.11,0-6.78-3.25-6.78-7.07
			s2.67-7.07,6.78-7.07c4.11,0,6.88,3.25,6.88,7.07S203.04,48.75,198.94,48.75z"/>
		<path d="M247.84,63.94v0.48c0.86,1.24,1.72,3.15,1.72,5.83c0,9.65-7.45,16.43-18.91,16.43c-1.81,0-3.72-0.19-5.35-0.57
			c-1.05,0.57-2.87,2.2-2.87,3.63c0,2.77,2.1,4.3,6.02,4.3s8.5-0.29,11.94-0.29c8.02,0,14.23,5.44,14.23,13.28
			c0,10.03-10.5,18.34-26.36,18.34c-10.79,0-17.95-4.3-17.95-11.08c0-5.73,3.92-8.69,9.36-10.7v-0.38
			c-4.01-1.24-6.69-4.39-6.69-8.02c0-4.11,3.72-8.21,8.5-9.65c0-0.38,0.19-0.48,0.19-0.48c-4.77-2.1-8.79-6.11-8.79-13.47
			c0-8.6,6.4-16.24,18.53-16.24c4.68,0,8.79,1.15,12.13,2.77h13.85l-0.19,7.45L247.84,63.94z M238.86,104.34
			c-2.58-0.48-6.88-0.29-15.19-0.29c-1.24,0.76-3.92,3.25-3.92,7.16c0,5.44,5.06,9.55,13.18,9.55c7.26,0,12.61-4.11,12.61-9.26
			C245.54,107.39,243.63,105.01,238.86,104.34z M235.61,61.07c-1.15-1.24-2.58-1.91-4.2-1.91c-4.58,0-7.45,3.82-7.45,11.27
			c0,4.97,1.15,8.69,3.25,10.79c1.05,1.05,2.48,1.62,3.92,1.62c2.01,0,3.72-0.48,4.87-1.62c1.81-1.81,2.67-5.06,2.67-9.74
			C238.67,66.61,237.62,63.08,235.61,61.07z"/>
		<path d="M282.6,100.04l0.29-3.72l1.91-0.29c2.77-0.19,3.25-0.86,3.25-1.82V75.5c0-9.46-2.96-11.75-8.31-11.75
			c-3.25,0-6.68,1.62-8.4,2.96v27.6c0,0.96,0.57,1.53,3.63,1.72l2.48,0.29l0.29,3.72h-23.49l0.29-3.72l2.29-0.29
			c2.29-0.19,3.25-0.67,3.25-1.82V47.13c0-1.72-0.57-2.67-1.62-3.25l-4.87-2.29l0.29-2.77l17.48-5.35v28.94h0.48
			c5.25-4.2,10.41-7.07,15.66-7.07c2.87,0,5.92,1.15,8.12,3.34c2.48,2.48,3.63,6.11,3.63,10.98v24.54c0,0.86,0.48,1.43,3.92,1.82
			l2,0.29l0.29,3.72H282.6z"/>
		<path d="M321.76,101.47c-7.54,0-12.42-4.39-12.22-14.04l0.48-24.07l-7.45-0.67l0.19-3.34l6.88-6.02l6.78-6.11l4.49,0.57l-0.1,9.46
			h15.57l-0.67,5.83h-14.9l-0.48,21.01c-0.09,7.45,3.25,9.65,7.93,9.65c2.39,0,5.63-0.76,8.02-2l0.38,2.77
			C333.13,98.61,327.59,101.47,321.76,101.47z"/>
		<path d="M352.71,101.47c-5.16,0-10.79-0.76-14.71-2.29l-0.48-12.7h6.49l2.29,8.69c1.91,1.05,4.58,2.1,7.26,2.1
			c4.58,0,8.4-2.77,8.4-6.88c0-4.2-5.25-5.83-10.7-7.83c-7.07-2.58-13.37-5.44-13.37-13.94c0-7.35,6.21-13.37,16.9-13.37
			c4.3,0,7.83,0.67,10.31,1.53l4.2-1.05l0.48,14.13h-6.02l-2.58-8.4c-1.72-1.05-4.2-1.91-6.68-1.91c-4.3,0-7.26,2.39-7.26,5.73
			c0,4.39,3.72,5.63,10.22,8.02c6.97,2.58,13.85,5.54,13.85,14.04C371.33,95.07,364.64,101.47,352.71,101.47z"/>
	</g>
	<g>
		<path d="M87.2,47.58c-4.66,0-7.67-4.29-8.84-9.71c-0.22-1.03-1.22-1.71-2.26-1.53l-4.51,0.79c-0.71,0.12-1.3,0.62-1.53,1.3
			c-1.58,4.75-3.12,11.75-4.08,17.59c-0.2,1.21,0.73,2.3,1.96,2.3l10.31,0c1.04,0,1.9,0.8,1.97,1.84l0.2,2.92
			c0.08,1.14-0.83,2.12-1.97,2.12H66.03c-0.94,0-1.75,0.66-1.94,1.59l-6.91,34.34c-3.01,15.67-7.72,28.7-13.5,34.6
			c-4.1,4.34-9.65,6.27-15.07,6.27c-6.63,0-11.94-3.98-11.94-9.65c0-5.94,5.65-9.4,11.7-6.03c2.27,1.27,3.41,3.73,3.81,6.3
			c0.19,1.22,1.37,1.98,2.52,1.63l3.33-1c0.62-0.19,1.1-0.66,1.31-1.28c1.38-4.1,3.02-11.84,4.35-19.27l6.91-44.56
			c0.18-1.14-0.65-2.18-1.8-2.28l-6.38-0.51c-1.1-0.09-1.91-1.05-1.81-2.15l0.07-0.8c0.07-0.79,0.61-1.47,1.37-1.71l9.36-2.99
			c0.67-0.21,1.16-0.77,1.32-1.45c1.64-7.34,4.71-14.57,9.53-19.39c5.18-5.18,11.21-8.08,18.93-8.08c7.96,0,13.38,4.82,13.38,10.85
			C94.55,43.84,91.54,47.58,87.2,47.58z"/>
	</g>
</g>
</svg>
