<?xml version="1.0" encoding="utf-8"?>
<!-- Generator: Adobe Adobe Illustrator 24.2.0, SVG Export Plug-In . SVG Version: 6.00 Build 0)  -->
<svg version="1.1" id="Ebene_1" xmlns="http://www.w3.org/2000/svg" xmlns:xlink="http://www.w3.org/1999/xlink" x="0px" y="0px"
	 width="414px" height="414px" viewBox="0 0 414 414" style="enable-background:new 0 0 414 414;" xml:space="preserve">
<style type="text/css">
	.st0{fill:none;}
	.st1{stroke:#181716;stroke-miterlimit:10;}
</style>
<path class="st0" d="M312.65,47.58H302h-31.98v129.38h31.94h10.65c17.52-0.87,31.44-15.37,31.49-33.1V80.68
	C344.09,62.95,330.17,48.45,312.65,47.58z"/>
<path class="st0" d="M71.11,266.06v55.03c-0.04,15.95,12.92,28.87,28.83,28.87h35.22V237.19H99.98
	C84.03,237.19,71.11,250.11,71.11,266.06z"/>
<path class="st1" d="M320.45,23.1h-95.89l-0.04,228.5h95.89c38.18,0.04,69.14-30.93,69.18-69.14V92.28
	C389.59,54.11,358.63,23.14,320.45,23.1z M343.22,167.41c-0.04,16.86-13.28,30.65-29.94,31.48c-0.51,0.04-1.06,0.04-1.62,0.04h-6.89
	c-0.55,0-1.06,0-1.62-0.04h-30.37V75.85h30.41c0.51-0.04,1.06-0.04,1.62-0.04h6.89c0.55,0,1.1,0,1.62,0.04
	c16.66,0.83,29.9,14.62,29.9,31.48V167.41z"/>
<path class="st1" d="M135.41,79.58v110.38c-4.4-0.97-8.95-1.48-13.64-1.48H87.92c-34.97,0-63.33,28.33-63.33,63.33l-0.04,82.6
	c0,35,28.36,63.36,63.33,63.36h33.88c11.19,0,21.69-2.89,30.78-8.01c8.66,8.48,19.96,14.11,32.55,15.52V23.1
	C157.17,26.21,135.41,50.31,135.41,79.58z M135.16,349.96H99.94c-15.91,0-28.87-12.92-28.83-28.87v-55.03
	c0-15.95,12.92-28.87,28.87-28.87h35.18V349.96z"/>
</svg>
